# xmcd CD database file
#
# Track frame offsets:
#	150
#	27451
#	43906
#	59316
#	73910
#	90437
#	107191
#	121080
#	135803
#	146601
#	162567
#	190486
#	206626
#	222353
#	253413
#	276381
#	292615
#	308135
#	326265
#
# Disc length: 4652 seconds
#
# Revision: 0
# Processed by: cddbd v1.5.2PL0 Copyright (c) Steve Scherf et al.
# Submitted via: Feurio! 1.68 - http://www.feurio.com
#
DISCID=27122a13
DTITLE=Various Artist - Remastered 17
DYEAR=1900
DGENRE=
TTITLE0=Michael Jackson  1979 - Don't Stop 'Til You Get Enough
TTITLE1=Michael Jackson - Rock With You
TTITLE2=Boney M - Daddy Cool
TTITLE3=Boney M - Sunny 1977
TTITLE4=Boney M - Rasputin 1978
TTITLE5=Boney M - Ma Baker 1977
TTITLE6=Boney M - Brown Girl In The Ring
TTITLE7=Boney M - Bahama Mama
TTITLE8=Boney M - Belfast 1977
TTITLE9=The Tramps - Disco Inferno 1977
TTITLE10=Andrea True Connection - More, More, More  1976
TTITLE11=Chic - Dance, Dance, Dance (Yowsaw,Yowsaw,Yowsaw) 1977
TTITLE12=The Jacksons - Blame It On The Boogie 1978
TTITLE13=??? - Jimmy Bo Horne - Spank 1983
TTITLE14=??? - Cheryl Lynn - Got To Be Real 1978
TTITLE15=??? - The Emotions - Best Of My Love 1977
TTITLE16=??? - Tavares - Heaven Must Be Missing An Angel 1976
TTITLE17=??? - Candi Staton - Young Hearts Run Free 1976
TTITLE18=??? - Rose Royce - Car Wash 1976
EXTD=
EXTT0=
EXTT1=
EXTT2=
EXTT3=
EXTT4=
EXTT5=
EXTT6=
EXTT7=
EXTT8=
EXTT9=
EXTT10=
EXTT11=
EXTT12=
EXTT13=
EXTT14=
EXTT15=
EXTT16=
EXTT17=
EXTT18=
PLAYORDER=
